<svg width="221" height="45" viewBox="0 0 221 45" fill="none" xmlns="http://www.w3.org/2000/svg">
<path d="M21.5569 44.72C17.3569 44.72 13.6769 43.8 10.5169 41.96C7.39688 40.12 4.93688 37.58 3.13688 34.34C1.37688 31.06 0.496875 27.28 0.496875 23C0.496875 18.72 1.37688 14.96 3.13688 11.72C4.93688 8.44 7.39688 5.88 10.5169 4.04C13.6769 2.2 17.3569 1.28 21.5569 1.28C25.7169 1.28 29.3769 2.2 32.5369 4.04C35.6969 5.88 38.1569 8.44 39.9169 11.72C41.6769 14.96 42.5569 18.72 42.5569 23C42.5569 27.28 41.6769 31.06 39.9169 34.34C38.1569 37.58 35.6969 40.12 32.5369 41.96C29.3769 43.8 25.7169 44.72 21.5569 44.72ZM21.5569 37.82C25.5569 37.82 28.7369 36.5 31.0969 33.86C33.4969 31.22 34.6969 27.6 34.6969 23C34.6969 18.4 33.4969 14.78 31.0969 12.14C28.7369 9.5 25.5569 8.18 21.5569 8.18C17.5569 8.18 14.3569 9.5 11.9569 12.14C9.55688 14.78 8.35688 18.4 8.35688 23C8.35688 27.6 9.55688 31.22 11.9569 33.86C14.3569 36.5 17.5569 37.82 21.5569 37.82ZM49.1578 44V14.24H55.9378L56.5378 19.28C57.4578 17.52 58.7778 16.12 60.4978 15.08C62.2578 14.04 64.3178 13.52 66.6778 13.52C70.3578 13.52 73.2178 14.68 75.2578 17C77.2978 19.32 78.3178 22.72 78.3178 27.2V44H70.6378V27.92C70.6378 25.36 70.1178 23.4 69.0778 22.04C68.0378 20.68 66.4178 20 64.2178 20C62.0578 20 60.2778 20.76 58.8778 22.28C57.5178 23.8 56.8378 25.92 56.8378 28.64V44H49.1578ZM100.182 44.72C97.1017 44.72 94.3817 44.2 92.0217 43.16C89.6617 42.08 87.8017 40.56 86.4417 38.6C85.0817 36.6 84.3817 34.18 84.3417 31.34H92.4417C92.5217 33.3 93.2217 34.96 94.5417 36.32C95.9017 37.64 97.7617 38.3 100.122 38.3C102.162 38.3 103.782 37.82 104.982 36.86C106.182 35.86 106.782 34.54 106.782 32.9C106.782 31.18 106.242 29.84 105.162 28.88C104.122 27.92 102.722 27.14 100.962 26.54C99.2017 25.94 97.3217 25.3 95.3217 24.62C92.0817 23.5 89.6017 22.06 87.8817 20.3C86.2017 18.54 85.3617 16.2 85.3617 13.28C85.3217 10.8 85.9017 8.68 87.1017 6.92C88.3417 5.12 90.0217 3.74 92.1417 2.78C94.2617 1.78 96.7017 1.28 99.4617 1.28C102.262 1.28 104.722 1.78 106.842 2.78C109.002 3.78 110.682 5.18 111.882 6.98C113.122 8.78 113.782 10.92 113.862 13.4H105.642C105.602 11.92 105.022 10.62 103.902 9.5C102.822 8.34 101.302 7.76 99.3417 7.76C97.6617 7.72 96.2417 8.14 95.0817 9.02C93.9617 9.86 93.4017 11.1 93.4017 12.74C93.4017 14.14 93.8417 15.26 94.7217 16.1C95.6017 16.9 96.8017 17.58 98.3217 18.14C99.8417 18.7 101.582 19.3 103.542 19.94C105.622 20.66 107.522 21.5 109.242 22.46C110.962 23.42 112.342 24.7 113.382 26.3C114.422 27.86 114.942 29.88 114.942 32.36C114.942 34.56 114.382 36.6 113.262 38.48C112.142 40.36 110.482 41.88 108.282 43.04C106.082 44.16 103.382 44.72 100.182 44.72ZM121.463 44V0.799998H129.143V26.3L139.703 14.24H148.823L136.643 27.8L150.803 44H141.203L129.143 29.06V44H121.463ZM167.563 44.72C164.563 44.72 161.903 44.08 159.583 42.8C157.263 41.52 155.443 39.72 154.123 37.4C152.803 35.08 152.143 32.4 152.143 29.36C152.143 26.28 152.783 23.54 154.063 21.14C155.383 18.74 157.183 16.88 159.463 15.56C161.783 14.2 164.503 13.52 167.623 13.52C170.543 13.52 173.123 14.16 175.363 15.44C177.603 16.72 179.343 18.48 180.583 20.72C181.863 22.92 182.503 25.38 182.503 28.1C182.503 28.54 182.483 29 182.443 29.48C182.443 29.96 182.423 30.46 182.383 30.98H159.763C159.923 33.3 160.723 35.12 162.163 36.44C163.643 37.76 165.423 38.42 167.503 38.42C169.063 38.42 170.363 38.08 171.403 37.4C172.483 36.68 173.283 35.76 173.803 34.64H181.603C181.043 36.52 180.103 38.24 178.783 39.8C177.503 41.32 175.903 42.52 173.983 43.4C172.103 44.28 169.963 44.72 167.563 44.72ZM167.623 19.76C165.743 19.76 164.083 20.3 162.643 21.38C161.203 22.42 160.283 24.02 159.883 26.18H174.703C174.583 24.22 173.863 22.66 172.543 21.5C171.223 20.34 169.583 19.76 167.623 19.76ZM202.643 44.72C199.843 44.72 197.343 44.04 195.143 42.68C192.943 41.32 191.203 39.46 189.923 37.1C188.643 34.74 188.003 32.06 188.003 29.06C188.003 26.06 188.643 23.4 189.923 21.08C191.203 18.72 192.943 16.88 195.143 15.56C197.343 14.2 199.843 13.52 202.643 13.52C204.883 13.52 206.843 13.94 208.523 14.78C210.203 15.62 211.563 16.8 212.603 18.32V0.799998H220.283V44H213.443L212.603 39.74C211.643 41.06 210.363 42.22 208.763 43.22C207.203 44.22 205.163 44.72 202.643 44.72ZM204.263 38C206.743 38 208.763 37.18 210.323 35.54C211.923 33.86 212.723 31.72 212.723 29.12C212.723 26.52 211.923 24.4 210.323 22.76C208.763 21.08 206.743 20.24 204.263 20.24C201.823 20.24 199.803 21.06 198.203 22.7C196.603 24.34 195.803 26.46 195.803 29.06C195.803 31.66 196.603 33.8 198.203 35.48C199.803 37.16 201.823 38 204.263 38Z" fill="#63B4FF"/>
</svg>
